# cube.obj
#

mtllib cube.mtl
o cube

v -400.0 -0.0 400.0
v 400.0 -0.0 400.0
v -400.0 0.0 400.0
v 400.0 0.0 400.0
v -400.0 0.0 -400.0
v 400.0 0.0 -400.0
v -400.0 -0.0 -400.0
v 400.0 -0.0 -400.0

vt 0.000000 0.000000
vt 1.000000 0.000000
vt 0.000000 1.000000
vt 1.000000 1.000000

vn 0.000000 0.000000 1.000000
vn 0.000000 1.000000 0.000000
vn 0.000000 0.000000 -1.000000
vn 0.000000 -1.000000 0.000000
vn 1.000000 0.000000 0.000000
vn -1.000000 0.000000 0.000000

f 7/1/4 8/2/4 1/3/4
f 1/3/4 8/2/4 2/4/4